<svg xmlns="http://www.w3.org/2000/svg" xmlns:xlink="http://www.w3.org/1999/xlink" width="200" zoomAndPan="magnify" viewBox="0 0 150 149.999998" height="200" preserveAspectRatio="xMidYMid meet" version="1.0"><defs><g/><clipPath id="7705a53385"><path d="M 2 4.003906 L 148.859375 4.003906 L 148.859375 145 L 2 145 Z M 2 4.003906 " clip-rule="nonzero"/></clipPath><clipPath id="e9a3ffd68c"><path d="M 1.109375 4.003906 L 148.859375 4.003906 L 148.859375 145.753906 L 1.109375 145.753906 Z M 1.109375 4.003906 " clip-rule="nonzero"/></clipPath><clipPath id="11353194c1"><path d="M 0.160156 1 L 5.679688 1 L 5.679688 4 L 0.160156 4 Z M 0.160156 1 " clip-rule="nonzero"/></clipPath><clipPath id="b65f6cbc63"><rect x="0" width="6" y="0" height="5"/></clipPath></defs><g clip-path="url(#7705a53385)"><path fill="#faa809" d="M 118.605469 142.945312 L 77.601562 122.378906 C 76.742188 121.949219 75.726562 121.96875 74.882812 122.433594 L 34.695312 144.550781 C 32.578125 145.71875 30.039062 143.949219 30.402344 141.558594 L 37.289062 96.203125 C 37.433594 95.253906 37.101562 94.292969 36.402344 93.636719 L 2.945312 62.25 C 1.179688 60.597656 2.082031 57.636719 4.46875 57.242188 L 49.730469 49.777344 C 50.675781 49.621094 51.488281 49.007812 51.894531 48.140625 L 71.40625 6.621094 C 72.433594 4.433594 75.527344 4.371094 76.640625 6.519531 L 97.726562 47.261719 C 98.167969 48.113281 99 48.695312 99.953125 48.816406 L 145.46875 54.542969 C 147.871094 54.84375 148.882812 57.765625 147.183594 59.488281 L 114.953125 92.132812 C 114.277344 92.816406 113.980469 93.789062 114.160156 94.730469 L 122.78125 139.789062 C 123.234375 142.164062 120.769531 144.03125 118.605469 142.945312 " fill-opacity="1" fill-rule="nonzero"/></g><g clip-path="url(#e9a3ffd68c)"><path stroke-linecap="butt" transform="matrix(0.00425627, 0, 0, -0.00425627, 1.509736, 145.431176)" fill="none" stroke-linejoin="miter" d="M 27511.350256 584.04741 L 17877.584752 5416.073262 C 17675.676739 5517.027269 17437.058179 5512.43845 17238.82122 5403.224571 L 7796.868329 206.846531 C 7299.440406 -67.564814 6702.894005 348.18214 6788.246028 909.853521 L 8406.263422 11566.007781 C 8440.220679 11789.024359 8362.210765 12014.794228 8197.931064 12168.978528 L 337.285018 19543.209816 C -77.544172 19931.423858 134.459242 20627.088739 695.212859 20719.782872 L 11329.34079 22473.629293 C 11551.439604 22510.339841 11742.334453 22654.428741 11837.781877 22858.172281 L 16422.011532 32613.082592 C 16663.383384 33127.030261 17390.25223 33141.714481 17651.814883 32636.944448 L 22605.903307 23064.669112 C 22709.610605 22864.596627 22905.094272 22727.849836 23129.028613 22699.399162 L 33822.811184 21353.957585 C 34387.235857 21283.289781 34624.936654 20596.802537 34225.709446 20192.068748 L 26653.241201 12522.317551 C 26494.468082 12361.708904 26424.718041 12133.185744 26466.935171 11912.004694 L 28492.439645 1325.600475 C 28598.900234 767.600149 28019.791343 328.909102 27511.350256 584.04741 Z M 27511.350256 584.04741 " stroke="#231f20" stroke-width="240" stroke-opacity="1" stroke-miterlimit="10"/></g><path fill="#231f20" d="M 62.917969 70.800781 C 62.917969 75.941406 58.75 80.109375 53.609375 80.109375 C 48.472656 80.109375 44.304688 75.941406 44.304688 70.800781 C 44.304688 65.660156 48.472656 61.492188 53.609375 61.492188 C 58.75 61.492188 62.917969 65.660156 62.917969 70.800781 " fill-opacity="1" fill-rule="nonzero"/><path fill="#231f20" d="M 105.804688 69.367188 C 105.804688 74.507812 101.636719 78.671875 96.5 78.671875 C 91.359375 78.671875 87.191406 74.507812 87.191406 69.367188 C 87.191406 64.226562 91.359375 60.058594 96.5 60.058594 C 101.636719 60.058594 105.804688 64.226562 105.804688 69.367188 " fill-opacity="1" fill-rule="nonzero"/><path fill="#fffffe" d="M 96.171875 67.246094 C 96.171875 69.210938 94.949219 70.800781 93.441406 70.800781 C 91.929688 70.800781 90.707031 69.210938 90.707031 67.246094 C 90.707031 65.285156 91.929688 63.695312 93.441406 63.695312 C 94.949219 63.695312 96.171875 65.285156 96.171875 67.246094 " fill-opacity="1" fill-rule="nonzero"/><path fill="#fffffe" d="M 53.609375 68.683594 C 53.609375 70.644531 52.386719 72.234375 50.878906 72.234375 C 49.367188 72.234375 48.144531 70.644531 48.144531 68.683594 C 48.144531 66.71875 49.367188 65.128906 50.878906 65.128906 C 52.386719 65.128906 53.609375 66.71875 53.609375 68.683594 " fill-opacity="1" fill-rule="nonzero"/><path fill="#231f20" d="M 58.898438 86.773438 C 58.898438 86.773438 59.039062 86.839844 59.296875 86.976562 C 59.554688 87.113281 59.925781 87.316406 60.386719 87.589844 C 60.851562 87.859375 61.402344 88.195312 62.023438 88.59375 C 62.175781 88.691406 62.335938 88.796875 62.5 88.902344 C 62.664062 89.007812 62.828125 89.121094 63 89.234375 C 63.042969 89.261719 63.085938 89.292969 63.128906 89.320312 L 63.195312 89.363281 L 63.210938 89.375 C 63.230469 89.390625 63.191406 89.359375 63.199219 89.363281 L 63.207031 89.367188 L 63.242188 89.390625 C 63.328125 89.449219 63.417969 89.507812 63.507812 89.566406 C 63.691406 89.683594 63.871094 89.804688 64.058594 89.929688 C 64.238281 90.035156 64.417969 90.140625 64.601562 90.25 C 64.691406 90.304688 64.78125 90.359375 64.875 90.417969 C 64.972656 90.46875 65.070312 90.523438 65.167969 90.582031 C 65.265625 90.636719 65.367188 90.691406 65.464844 90.746094 C 65.5625 90.804688 65.664062 90.863281 65.765625 90.914062 C 65.972656 91.019531 66.179688 91.128906 66.386719 91.238281 C 67.234375 91.660156 68.132812 92.054688 69.074219 92.386719 C 70.015625 92.71875 71 92.988281 72.003906 93.171875 C 73.011719 93.355469 74.039062 93.457031 75.066406 93.460938 C 76.097656 93.464844 77.125 93.371094 78.132812 93.195312 C 79.136719 93.019531 80.125 92.757812 81.066406 92.429688 C 82.011719 92.105469 82.914062 91.71875 83.757812 91.300781 C 83.96875 91.195312 84.175781 91.085938 84.382812 90.984375 C 84.4375 90.957031 84.484375 90.929688 84.535156 90.902344 C 84.585938 90.875 84.636719 90.847656 84.683594 90.820312 C 84.785156 90.761719 84.882812 90.707031 84.984375 90.652344 C 85.082031 90.601562 85.183594 90.546875 85.277344 90.492188 C 85.371094 90.433594 85.464844 90.378906 85.5625 90.320312 C 85.75 90.210938 85.9375 90.101562 86.117188 89.992188 C 86.296875 89.875 86.46875 89.761719 86.644531 89.65625 C 86.730469 89.601562 86.820312 89.546875 86.902344 89.492188 C 86.984375 89.4375 87.066406 89.378906 87.148438 89.324219 C 87.308594 89.214844 87.46875 89.109375 87.625 89.007812 C 87.703125 88.957031 87.78125 88.898438 87.859375 88.84375 C 87.9375 88.792969 88.015625 88.738281 88.089844 88.6875 C 88.695312 88.269531 89.234375 87.917969 89.6875 87.632812 C 90.140625 87.347656 90.503906 87.132812 90.757812 86.988281 C 91.011719 86.84375 91.148438 86.773438 91.148438 86.773438 C 91.148438 86.773438 91.085938 86.910156 90.960938 87.15625 C 90.832031 87.402344 90.640625 87.761719 90.386719 88.210938 C 90.132812 88.65625 89.8125 89.191406 89.429688 89.792969 C 89.382812 89.867188 89.335938 89.941406 89.285156 90.019531 C 89.234375 90.097656 89.1875 90.175781 89.128906 90.257812 C 89.019531 90.417969 88.902344 90.582031 88.78125 90.753906 C 88.722656 90.839844 88.660156 90.925781 88.597656 91.011719 C 88.53125 91.097656 88.460938 91.183594 88.394531 91.269531 C 88.257812 91.441406 88.113281 91.617188 87.96875 91.796875 C 87.894531 91.890625 87.8125 91.972656 87.734375 92.0625 C 87.65625 92.152344 87.574219 92.238281 87.492188 92.328125 C 87.410156 92.417969 87.328125 92.511719 87.242188 92.601562 C 87.15625 92.691406 87.0625 92.777344 86.972656 92.867188 C 86.882812 92.957031 86.789062 93.046875 86.695312 93.136719 C 86.648438 93.179688 86.601562 93.226562 86.554688 93.269531 C 86.507812 93.316406 86.457031 93.363281 86.40625 93.40625 C 86.207031 93.582031 86 93.753906 85.792969 93.933594 C 84.933594 94.628906 83.949219 95.296875 82.835938 95.871094 C 81.722656 96.445312 80.484375 96.929688 79.164062 97.253906 C 79 97.292969 78.832031 97.332031 78.667969 97.371094 C 78.5 97.414062 78.332031 97.441406 78.160156 97.46875 C 77.992188 97.5 77.820312 97.527344 77.652344 97.558594 L 77.523438 97.578125 C 77.480469 97.585938 77.4375 97.589844 77.394531 97.59375 L 77.136719 97.625 C 76.960938 97.644531 76.789062 97.664062 76.617188 97.683594 C 76.53125 97.695312 76.445312 97.699219 76.355469 97.703125 L 76.09375 97.71875 C 75.921875 97.726562 75.746094 97.738281 75.570312 97.746094 C 75.394531 97.75 75.222656 97.746094 75.046875 97.746094 C 73.648438 97.738281 72.25 97.554688 70.933594 97.214844 C 70.769531 97.175781 70.605469 97.136719 70.445312 97.082031 C 70.285156 97.035156 70.125 96.984375 69.964844 96.933594 C 69.644531 96.839844 69.335938 96.714844 69.027344 96.601562 C 68.71875 96.492188 68.425781 96.351562 68.132812 96.222656 C 68.058594 96.191406 67.988281 96.15625 67.914062 96.125 L 67.804688 96.074219 L 67.699219 96.019531 C 67.558594 95.949219 67.421875 95.875 67.28125 95.804688 C 66.175781 95.21875 65.195312 94.546875 64.34375 93.847656 C 64.136719 93.664062 63.929688 93.488281 63.734375 93.3125 C 63.632812 93.226562 63.539062 93.132812 63.445312 93.042969 C 63.351562 92.953125 63.261719 92.859375 63.171875 92.773438 C 63.082031 92.683594 62.992188 92.59375 62.90625 92.503906 C 62.816406 92.414062 62.734375 92.316406 62.648438 92.226562 C 62.480469 92.039062 62.316406 91.859375 62.160156 91.679688 C 62.027344 91.507812 61.894531 91.339844 61.765625 91.171875 C 61.703125 91.089844 61.640625 91.007812 61.578125 90.925781 L 61.554688 90.894531 L 61.546875 90.886719 C 61.550781 90.886719 61.511719 90.851562 61.523438 90.863281 L 61.515625 90.847656 L 61.46875 90.785156 C 61.441406 90.742188 61.410156 90.703125 61.382812 90.664062 C 61.265625 90.5 61.152344 90.34375 61.042969 90.1875 C 60.933594 90.03125 60.832031 89.882812 60.730469 89.734375 C 60.328125 89.144531 59.988281 88.621094 59.714844 88.183594 C 59.441406 87.746094 59.238281 87.394531 59.101562 87.148438 C 58.964844 86.90625 58.898438 86.773438 58.898438 86.773438 " fill-opacity="1" fill-rule="nonzero"/><path stroke-linecap="butt" transform="matrix(0.00425627, 0, 0, -0.00425627, 1.509736, 145.431176)" fill="none" stroke-linejoin="miter" d="M 13483.332182 13781.48934 C 13483.332182 13781.48934 13516.371675 13765.887357 13576.944078 13733.765628 C 13637.516482 13701.643899 13724.704033 13653.920186 13833.000149 13589.676728 C 13942.214029 13526.351033 14071.61871 13447.423355 14217.543137 13353.811458 C 14253.335921 13330.867366 14290.964233 13306.087746 14329.510308 13281.308126 C 14368.056383 13256.528507 14406.602458 13229.913359 14446.984061 13203.298212 C 14457.079462 13196.873866 14467.174862 13189.531757 14477.270263 13183.107411 L 14492.872246 13173.01201 L 14496.543301 13170.258719 C 14501.132119 13166.587665 14491.954482 13173.929774 14493.790009 13173.01201 L 14495.625537 13172.094247 L 14503.88541 13166.587665 C 14524.076211 13152.821209 14545.184776 13139.054754 14566.293341 13125.288298 C 14609.428235 13097.755387 14651.645365 13069.304713 14695.698022 13039.936275 C 14737.915152 13015.156655 14780.132282 12990.377035 14823.267176 12964.679652 C 14844.375741 12951.83096 14865.484306 12938.982268 14887.510635 12925.215813 C 14910.454727 12913.284885 14933.398819 12900.436193 14956.342912 12886.669738 C 14979.287004 12873.821046 15003.14886 12860.972354 15026.092952 12848.123662 C 15049.037045 12834.357207 15072.898901 12820.590752 15096.760757 12808.659824 C 15145.402233 12783.880204 15194.043709 12758.18282 15242.685184 12732.485437 C 15441.839906 12633.366958 15652.925556 12540.672825 15874.106606 12462.662911 C 16095.287657 12384.652997 16326.564108 12321.327302 16562.429377 12278.192408 C 16799.212411 12235.057514 17040.584262 12211.195658 17281.956114 12210.277895 C 17524.24573 12209.360131 17765.617581 12231.38646 18002.400614 12272.685826 C 18238.265884 12313.985192 18470.460099 12375.47536 18691.641149 12452.56751 C 18913.739963 12528.741897 19125.743377 12619.600502 19323.980335 12717.801218 C 19373.539574 12742.580838 19422.18105 12768.278221 19470.822526 12792.140077 C 19483.671218 12798.564423 19494.684382 12804.988769 19506.61531 12811.413115 C 19518.546238 12817.837461 19530.477166 12824.261806 19541.490331 12830.686152 C 19565.352187 12844.452608 19588.296279 12857.301299 19612.158135 12870.149991 C 19635.102227 12882.080919 19658.964083 12894.929611 19680.990412 12907.778303 C 19703.016741 12921.544758 19725.04307 12934.39345 19747.987162 12948.159905 C 19792.039819 12973.857289 19836.092477 12999.554672 19878.309607 13025.252056 C 19920.526736 13052.784966 19960.908339 13079.400114 20002.207705 13104.179733 C 20022.398507 13117.028425 20043.507072 13129.877117 20062.780109 13142.725808 C 20082.053147 13155.5745 20101.326184 13169.340956 20120.599222 13182.189647 C 20158.227533 13207.887031 20195.855845 13232.666651 20232.566393 13256.528507 C 20250.921667 13268.459435 20269.27694 13282.22589 20287.632214 13295.074582 C 20305.987488 13307.00551 20324.342762 13319.854202 20341.780272 13331.78513 C 20484.033645 13429.985845 20610.685035 13512.584577 20717.145624 13579.581327 C 20823.606212 13646.578077 20908.958236 13697.05508 20968.612876 13731.012337 C 21028.267516 13764.969593 21060.389245 13781.48934 21060.389245 13781.48934 C 21060.389245 13781.48934 21045.705026 13749.367611 21016.336588 13691.548498 C 20986.050386 13633.729385 20941.079965 13549.295125 20881.425325 13443.7523 C 20821.770685 13339.127239 20746.514062 13213.393613 20656.57322 13072.058004 C 20645.560055 13054.620494 20634.546891 13037.182984 20622.615963 13018.82771 C 20610.685035 13000.472436 20599.671871 12982.117162 20585.905415 12962.844124 C 20560.208032 12925.215813 20532.675121 12886.669738 20504.224446 12846.288135 C 20490.457991 12826.097334 20475.773772 12805.906532 20461.089553 12785.715731 C 20445.48757 12765.52493 20428.967823 12745.334129 20413.365841 12725.143327 C 20381.244111 12684.761725 20347.286855 12643.462359 20313.329598 12601.245229 C 20295.892088 12579.2189 20276.61905 12559.945862 20258.263776 12538.837297 C 20239.908502 12517.728732 20220.635465 12497.537931 20201.362427 12476.429366 C 20182.089389 12455.320801 20162.816352 12433.294472 20142.625551 12412.185907 C 20122.434749 12391.077342 20100.408421 12370.886541 20079.299856 12349.777976 C 20058.191291 12328.669411 20036.164962 12307.560846 20014.138633 12286.452281 C 20003.125469 12276.356881 19992.112305 12265.343716 19981.09914 12255.248316 C 19970.085976 12244.235151 19958.155048 12233.221987 19946.22412 12223.126586 C 19899.418172 12181.82722 19850.776696 12141.445617 19802.13522 12099.228488 C 19600.227207 11935.86655 19368.950756 11778.928958 19107.388103 11644.017695 C 18845.82545 11509.106432 18554.894359 11395.303734 18244.69023 11319.129347 C 18206.144155 11309.95171 18166.680316 11300.774073 18128.134241 11291.596436 C 18088.670402 11281.501036 18049.206563 11275.07669 18008.82496 11268.652344 C 17969.361121 11261.310234 17928.979519 11254.885888 17889.51568 11247.543779 L 17859.229478 11242.95496 C 17849.134077 11241.119433 17839.038677 11240.201669 17828.943276 11239.283906 L 17768.370872 11231.941796 C 17727.071506 11227.352978 17686.689903 11222.764159 17646.308301 11218.175341 C 17626.1175 11215.42205 17605.926698 11214.504286 17584.818133 11213.586522 L 17523.327966 11209.915467 C 17482.946363 11208.07994 17441.646997 11205.326649 17400.347631 11203.491121 C 17359.048264 11202.573358 17318.666662 11203.491121 17277.367296 11203.491121 C 16948.807893 11205.326649 16620.24849 11248.461543 16310.962125 11328.306984 C 16272.41605 11337.484621 16233.869975 11346.662258 16196.241663 11359.51095 C 16158.613352 11370.524114 16120.98504 11382.455042 16083.356729 11394.38597 C 16008.100106 11416.412299 15935.596774 11445.780737 15863.093442 11472.395884 C 15790.59011 11498.093267 15721.757833 11531.13276 15652.925556 11561.418962 C 15635.488046 11568.761072 15618.968299 11577.020945 15601.530789 11584.363055 L 15575.833406 11596.293983 L 15551.053786 11609.142675 C 15518.014293 11625.662421 15485.892563 11643.099931 15452.85307 11659.619678 C 15193.125945 11797.284232 14962.767257 11955.139587 14762.694772 12119.419289 C 14714.053296 12162.554182 14665.41182 12203.853549 14619.523636 12245.152915 C 14595.66178 12265.343716 14573.635451 12287.370045 14551.609122 12308.47861 C 14529.582794 12329.587175 14508.474229 12351.613504 14487.365664 12371.804305 C 14466.257099 12392.91287 14445.148534 12414.021435 14424.957732 12435.13 C 14403.849167 12456.238565 14384.57613 12479.182657 14364.385329 12500.291222 C 14324.92149 12544.343879 14286.375414 12586.561009 14249.664867 12628.778139 C 14218.460901 12669.159742 14187.256935 12708.623581 14156.970734 12748.08742 C 14142.286514 12767.360457 14127.602295 12786.633495 14112.918076 12805.906532 L 14107.411494 12813.248642 L 14105.575967 12815.084169 C 14106.49373 12815.084169 14097.316093 12823.344043 14100.069384 12820.590752 L 14098.233857 12824.261806 L 14087.220693 12838.946026 C 14080.796347 12849.041426 14073.454237 12858.219063 14067.029891 12867.3967 C 14039.496981 12905.942775 14012.881833 12942.653323 13987.18445 12979.363871 C 13961.487067 13016.074419 13937.62521 13050.949439 13913.763354 13085.824459 C 13819.233694 13224.406777 13739.388252 13347.387112 13675.144794 13450.176646 C 13610.901335 13552.96618 13563.177623 13635.564913 13531.055894 13693.384025 C 13498.934164 13750.285374 13483.332182 13781.48934 13483.332182 13781.48934 Z M 13483.332182 13781.48934 " stroke="#231f20" stroke-width="100" stroke-opacity="1" stroke-miterlimit="10"/><g transform="matrix(1, 0, 0, 1, 2, 2)"><g clip-path="url(#b65f6cbc63)"><g clip-path="url(#11353194c1)"><g fill="#ffffff" fill-opacity="1"><g transform="translate(0.219293, 3.751154)"><g><path d="M 1.125 -0.421875 C 1.125 -0.492188 1.097656 -0.550781 1.046875 -0.59375 C 0.992188 -0.632812 0.894531 -0.664062 0.75 -0.6875 C 0.613281 -0.71875 0.503906 -0.753906 0.421875 -0.796875 C 0.347656 -0.835938 0.289062 -0.882812 0.25 -0.9375 C 0.207031 -1 0.1875 -1.070312 0.1875 -1.15625 C 0.1875 -1.28125 0.238281 -1.382812 0.34375 -1.46875 C 0.457031 -1.5625 0.601562 -1.609375 0.78125 -1.609375 C 0.957031 -1.609375 1.101562 -1.5625 1.21875 -1.46875 C 1.332031 -1.382812 1.390625 -1.269531 1.390625 -1.125 L 1.109375 -1.125 C 1.109375 -1.195312 1.078125 -1.257812 1.015625 -1.3125 C 0.953125 -1.363281 0.875 -1.390625 0.78125 -1.390625 C 0.675781 -1.390625 0.597656 -1.367188 0.546875 -1.328125 C 0.492188 -1.285156 0.46875 -1.226562 0.46875 -1.15625 C 0.46875 -1.09375 0.492188 -1.046875 0.546875 -1.015625 C 0.597656 -0.984375 0.691406 -0.953125 0.828125 -0.921875 C 0.960938 -0.890625 1.070312 -0.851562 1.15625 -0.8125 C 1.238281 -0.769531 1.300781 -0.71875 1.34375 -0.65625 C 1.382812 -0.59375 1.40625 -0.519531 1.40625 -0.4375 C 1.40625 -0.300781 1.347656 -0.1875 1.234375 -0.09375 C 1.117188 -0.0078125 0.96875 0.03125 0.78125 0.03125 C 0.65625 0.03125 0.546875 0.0078125 0.453125 -0.03125 C 0.359375 -0.0820312 0.28125 -0.144531 0.21875 -0.21875 C 0.164062 -0.300781 0.140625 -0.390625 0.140625 -0.484375 L 0.40625 -0.484375 C 0.414062 -0.398438 0.453125 -0.328125 0.515625 -0.265625 C 0.585938 -0.210938 0.675781 -0.1875 0.78125 -0.1875 C 0.882812 -0.1875 0.96875 -0.207031 1.03125 -0.25 C 1.09375 -0.289062 1.125 -0.347656 1.125 -0.421875 Z M 1.125 -0.421875 "/></g></g><g transform="translate(1.766168, 3.751154)"><g><path d="M 0.578125 -1.96875 L 0.578125 -1.578125 L 0.875 -1.578125 L 0.875 -1.375 L 0.578125 -1.375 L 0.578125 -0.390625 C 0.578125 -0.328125 0.585938 -0.28125 0.609375 -0.25 C 0.640625 -0.21875 0.6875 -0.203125 0.75 -0.203125 C 0.78125 -0.203125 0.820312 -0.207031 0.875 -0.21875 L 0.875 0 C 0.800781 0.0195312 0.734375 0.03125 0.671875 0.03125 C 0.546875 0.03125 0.453125 -0.00390625 0.390625 -0.078125 C 0.328125 -0.148438 0.296875 -0.253906 0.296875 -0.390625 L 0.296875 -1.375 L 0.015625 -1.375 L 0.015625 -1.578125 L 0.296875 -1.578125 L 0.296875 -1.96875 Z M 0.578125 -1.96875 "/></g></g><g transform="translate(2.746148, 3.751154)"><g><path d="M 1.1875 0 C 1.164062 -0.03125 1.148438 -0.0859375 1.140625 -0.171875 C 1.015625 -0.0351562 0.863281 0.03125 0.6875 0.03125 C 0.53125 0.03125 0.398438 -0.0078125 0.296875 -0.09375 C 0.203125 -0.1875 0.15625 -0.300781 0.15625 -0.4375 C 0.15625 -0.601562 0.21875 -0.734375 0.34375 -0.828125 C 0.46875 -0.921875 0.644531 -0.96875 0.875 -0.96875 L 1.140625 -0.96875 L 1.140625 -1.078125 C 1.140625 -1.179688 1.109375 -1.257812 1.046875 -1.3125 C 0.992188 -1.363281 0.914062 -1.390625 0.8125 -1.390625 C 0.707031 -1.390625 0.625 -1.363281 0.5625 -1.3125 C 0.5 -1.269531 0.46875 -1.210938 0.46875 -1.140625 L 0.1875 -1.140625 C 0.1875 -1.222656 0.210938 -1.300781 0.265625 -1.375 C 0.328125 -1.445312 0.40625 -1.503906 0.5 -1.546875 C 0.601562 -1.585938 0.710938 -1.609375 0.828125 -1.609375 C 1.003906 -1.609375 1.144531 -1.5625 1.25 -1.46875 C 1.351562 -1.382812 1.40625 -1.257812 1.40625 -1.09375 L 1.40625 -0.375 C 1.40625 -0.226562 1.425781 -0.113281 1.46875 -0.03125 L 1.46875 0 Z M 0.734375 -0.203125 C 0.816406 -0.203125 0.894531 -0.222656 0.96875 -0.265625 C 1.050781 -0.316406 1.109375 -0.375 1.140625 -0.4375 L 1.140625 -0.765625 L 0.921875 -0.765625 C 0.597656 -0.765625 0.4375 -0.671875 0.4375 -0.484375 C 0.4375 -0.390625 0.460938 -0.316406 0.515625 -0.265625 C 0.566406 -0.222656 0.640625 -0.203125 0.734375 -0.203125 Z M 0.734375 -0.203125 "/></g></g><g transform="translate(4.377984, 3.751154)"><g><path d="M 0.96875 -1.34375 C 0.925781 -1.351562 0.882812 -1.359375 0.84375 -1.359375 C 0.664062 -1.359375 0.539062 -1.28125 0.46875 -1.125 L 0.46875 0 L 0.203125 0 L 0.203125 -1.578125 L 0.46875 -1.578125 L 0.46875 -1.40625 C 0.5625 -1.539062 0.6875 -1.609375 0.84375 -1.609375 C 0.90625 -1.609375 0.945312 -1.601562 0.96875 -1.59375 Z M 0.96875 -1.34375 "/></g></g></g></g></g></g></svg>